<?xml version="1.0" encoding="UTF-8"?>
<svg version="1.1" xmlns="http://www.w3.org/2000/svg" width="271" height="234">
<path d="M0 0 C89.43 0 178.86 0 271 0 C271 77.22 271 154.44 271 234 C181.57 234 92.14 234 0 234 C0 156.78 0 79.56 0 0 Z " fill="#FCFCFB" transform="translate(0,0)"/>
<path d="M0 0 C1.32451172 0.30744141 1.32451172 0.30744141 2.67578125 0.62109375 C9.65961549 2.36976764 15.15658981 5.87632762 21 10 C22.0725 10.7425 23.145 11.485 24.25 12.25 C34.83707647 22.83707647 38.05388554 36.2463999 38.14344788 50.83425903 C38.1426548 51.86158646 38.1426548 51.86158646 38.1418457 52.90966797 C38.14532013 53.65555176 38.14879456 54.40143555 38.15237427 55.16992188 C38.1596738 56.77509711 38.16504974 58.38028206 38.16866493 59.98546982 C38.17590141 62.53451211 38.19161925 65.08336969 38.21000671 67.63235474 C38.2621487 74.87483227 38.3104285 82.11720192 38.32592773 89.35986328 C38.33605759 93.80431073 38.3654991 98.24828105 38.40724754 102.69253922 C38.41948218 104.37563582 38.42469272 106.05879997 38.42244911 107.74193954 C38.40857275 121.54480534 40.4828025 130.50093443 49.390625 141.359375 C51.41886579 144.68726524 51.81544539 146.17180127 51 150 C49.06465949 152.44784301 46.74411359 154.30995806 44.3125 156.25 C43.63783691 156.80776123 42.96317383 157.36552246 42.26806641 157.94018555 C40.19270615 159.64485894 38.09711351 161.32221006 36 163 C34.76098358 164.02124413 33.52266329 165.04333363 32.28515625 166.06640625 C23.9105667 172.83730115 23.9105667 172.83730115 20.3984375 173.46484375 C12.20758485 171.87736579 6.40145214 161.85848371 1.84765625 155.44140625 C0.2315204 152.93103956 0.2315204 152.93103956 -2 152 C-2 152.66 -2 153.32 -2 154 C-19.37851223 169.35143114 -36.35738154 175.63742905 -59.625 174.22753906 C-72.10396628 173.0319802 -83.26414487 167.08274505 -91.24609375 157.48828125 C-100.68620989 144.09551069 -102.05984217 127.00135589 -99.34765625 111.19921875 C-95.45552321 97.25101664 -86.8706306 86.11311098 -74.4375 78.8125 C-56.20834941 68.72534762 -32.71104632 64.67454372 -11.9375 64.9375 C-10.52791016 64.95103516 -10.52791016 64.95103516 -9.08984375 64.96484375 C-8.40019531 64.97644531 -7.71054688 64.98804687 -7 65 C-7.05249744 61.83205101 -7.14770488 58.66670122 -7.25 55.5 C-7.26417969 54.613125 -7.27835937 53.72625 -7.29296875 52.8125 C-7.56050893 45.5354072 -9.17521318 39.98171942 -14.25 34.625 C-21.25818574 30.48379934 -29.79941398 29.7190297 -37.6484375 31.65234375 C-43.65451059 33.75356752 -47.70943996 36.50538559 -51 42 C-52.17317451 44.59108409 -53.20312025 47.17823476 -54.140625 49.86328125 C-55 52 -55 52 -57 54 C-63.60785624 54.3000606 -70.11150836 53.75667232 -76.6875 53.125 C-77.59822266 53.04636719 -78.50894531 52.96773437 -79.44726562 52.88671875 C-91.22521552 51.77478448 -91.22521552 51.77478448 -95 48 C-96.28943824 38.89578454 -90.81379295 29.35461549 -86 22 C-76.90753796 10.06786042 -64.97912973 4.35592772 -51 0 C-50.02933594 -0.32226562 -49.05867188 -0.64453125 -48.05859375 -0.9765625 C-32.89425324 -5.29769282 -15.04699775 -4.36586304 0 0 Z " fill="#211D1E" transform="translate(158,3)"/>
<path d="M0 0 C3.52582111 1.41032845 6.99820489 2.86983615 10.46655273 4.41040039 C18.22560895 7.85255584 26.03386859 11.06220125 34 14 C34.9283667 14.35360596 34.9283667 14.35360596 35.87548828 14.71435547 C55.86930757 22.32279821 76.13487647 25.88509611 97.30883789 28.59863281 C100 29 100 29 101.87597656 29.51402283 C104.19997699 30.04575479 106.29225406 30.14802483 108.67553711 30.17700195 C109.60370743 30.18965088 110.53187775 30.2022998 111.48817444 30.21533203 C112.49110031 30.22290527 113.49402618 30.23047852 114.52734375 30.23828125 C116.09995216 30.25290405 116.09995216 30.25290405 117.70433044 30.26782227 C140.09651892 30.43294346 161.9810048 30.54255888 184 26 C184.96905273 25.80212891 185.93810547 25.60425781 186.93652344 25.40039062 C193.01185695 24.12202627 199.01149633 22.63436768 205 21 C205.75700195 20.79761719 206.51400391 20.59523437 207.29394531 20.38671875 C216.3877475 17.93427971 225.01568774 14.94629395 233.6328125 11.13671875 C237.30352227 9.89753483 240.15156857 9.71688597 244 10 C245 11 245 11 245.4609375 13.79296875 C245 17 245 17 242.3515625 19.23828125 C241.12375467 19.95491249 239.8799801 20.64459481 238.625 21.3125 C237.94800049 21.69148438 237.27100098 22.07046875 236.57348633 22.4609375 C234.39508787 23.6658292 232.1988018 24.83284278 230 26 C228.98123779 26.56340088 228.98123779 26.56340088 227.94189453 27.13818359 C204.87745329 39.89263668 176.11902088 50.19510735 149.57421875 50.89453125 C147.10394906 50.8974567 147.10394906 50.8974567 145.20847702 51.49907589 C142.45364169 52.12392434 139.9161093 52.12273343 137.09014893 52.12025452 C135.88142624 52.12162918 134.67270355 52.12300385 133.42735291 52.12442017 C132.09121679 52.12088129 130.75508093 52.11724649 129.41894531 52.11352539 C128.00950625 52.11324326 126.60006703 52.11340175 125.19062805 52.1139679 C121.36659383 52.11425488 117.54259096 52.10837413 113.71856403 52.10139394 C109.72137422 52.09514394 105.72418369 52.0945553 101.72698975 52.09336853 C94.15872381 52.09026008 86.59047232 52.08205322 79.02221274 52.07201904 C70.40559909 52.06084283 61.78898476 52.05534365 53.17236567 52.05032361 C35.44823393 52.03987022 17.72412198 52.02153076 0 52 C0 34.84 0 17.68 0 0 Z " fill="#F5A219" transform="translate(0,182)"/>
<path d="M0 0 C0 19.47 0 38.94 0 59 C-42.24 59 -84.48 59 -128 59 C-123.99736339 56.99868169 -122.59941306 56.81454574 -118.3125 56.75 C-100.02302314 55.64616061 -82.0035591 49.51234689 -65 43 C-63.93265625 42.60296875 -62.8653125 42.2059375 -61.765625 41.796875 C-51.06877505 37.60087309 -40.0376369 32.21919062 -30.5546875 25.69140625 C-28 24 -28 24 -26 24 C-26.495 20.535 -26.495 20.535 -27 17 C-26.34 17 -25.68 17 -25 17 C-23.15025907 22.10880829 -23.15025907 22.10880829 -23 25 C-24.34441487 27.56028012 -25.86924923 28.97071355 -28 31 C-27.01 31 -26.02 31 -25 31 C-24.01 31 -23.02 31 -22 31 C-20.99059621 28.98119242 -20.42793326 27.2109885 -20 25 C-20.33 24.67 -20.66 24.34 -21 24 C-20.71269945 21.66055264 -20.38063221 19.3260857 -20 17 C-19.01 17 -18.02 17 -17 17 C-16.67 14.69 -16.34 12.38 -16 10 C-17.65 10 -19.3 10 -21 10 C-21 9.01 -21 8.02 -21 7 C-21.85996582 7.04543945 -21.85996582 7.04543945 -22.73730469 7.09179688 C-43.79900736 8.19008061 -43.79900736 8.19008061 -54 8 C-52.15091995 3.36746433 -49.4073493 2.21013478 -45.03515625 0.171875 C-31.20879454 -5.1664886 -13.59604638 -6.79802319 0 0 Z " fill="#FCFCF9" transform="translate(271,175)"/>
<path d="M0 0 C0.05883728 3.47909371 0.09387399 6.95805674 0.125 10.4375 C0.14175781 11.41138672 0.15851563 12.38527344 0.17578125 13.38867188 C0.25358421 25.02021374 -2.05910909 36.16737293 -9.92578125 45.21484375 C-15.06176545 49.93197098 -20.34847323 53.04906018 -27.4375 53.4375 C-33.26982021 53.1895272 -37.76796527 51.36789771 -41.796875 47.09375 C-47.70815052 39.54983648 -47.74895365 32.4555398 -47 23 C-45.1619133 16.07720606 -41.47841661 10.12061363 -35.328125 6.37109375 C-23.35193033 0.06383386 -13.24102777 -0.27363777 0 0 Z " fill="#FAFAFA" transform="translate(151,93)"/>
<path d="M0 0 C3.67143788 0.91785947 4.52615756 1.20601809 7.1875 3.4375 C22.76817932 15.46924681 41.41077769 23.85426412 60 30 C60.69254883 30.24153809 61.38509766 30.48307617 62.09863281 30.73193359 C67.26367323 32.51348209 72.40006597 33.89983053 77.75 35 C78.94979492 35.25209229 78.94979492 35.25209229 80.17382812 35.50927734 C87.48045964 36.99458294 94.83449108 38.05160412 102.23339844 38.9609375 C103.07418945 39.06921875 103.91498047 39.1775 104.78125 39.2890625 C105.8959668 39.42368896 105.8959668 39.42368896 107.03320312 39.56103516 C109 40 109 40 112 42 C75.04 42 38.08 42 0 42 C0 28.14 0 14.28 0 0 Z " fill="#FCFCFA" transform="translate(0,192)"/>
<path d="M0 0 C1 1 1 1 1.4609375 3.79296875 C1 7 1 7 -1.6484375 9.23828125 C-2.87624533 9.95491249 -4.1200199 10.64459481 -5.375 11.3125 C-6.05199951 11.69148437 -6.72899902 12.07046875 -7.42651367 12.4609375 C-9.60491213 13.6658292 -11.8011982 14.83284278 -14 16 C-15.01876221 16.56340088 -15.01876221 16.56340088 -16.05810547 17.13818359 C-33.43649877 26.74829727 -52.3314934 32.83977463 -71.5625 37.5625 C-72.57836182 37.81410889 -73.59422363 38.06571777 -74.64086914 38.32495117 C-80.57395058 39.70189346 -85.91108409 40.24506473 -92 40 C-92 39.67 -92 39.34 -92 39 C-87.05 38.505 -87.05 38.505 -82 38 C-81.67 36.68 -81.34 35.36 -81 34 C-82.35444301 32.22809091 -82.35444301 32.22809091 -84 31 C-83 30 -83 30 -79.9375 29.9375 C-78.4834375 29.9684375 -78.4834375 29.9684375 -77 30 C-77 30.66 -77 31.32 -77 32 C-75.515 32.495 -75.515 32.495 -74 33 C-74.99 33.495 -74.99 33.495 -76 34 C-74.02 34 -72.04 34 -70 34 C-69.505 33.01 -69.505 33.01 -69 32 C-67.4840625 32.061875 -67.4840625 32.061875 -65.9375 32.125 C-61.81923948 31.99426157 -58.88169467 31.26749214 -55 30 C-55 29.34 -55 28.68 -55 28 C-54.01 28 -53.02 28 -52 28 C-52 27.01 -52 26.02 -52 25 C-53.98 24.67 -55.96 24.34 -58 24 C-58 23.34 -58 22.68 -58 22 C-56.02 22 -54.04 22 -52 22 C-52 22.66 -52 23.32 -52 24 C-50.68 24 -49.36 24 -48 24 C-48.495 22.515 -48.495 22.515 -49 21 C-50.485 20.505 -50.485 20.505 -52 20 C-52 19.34 -52 18.68 -52 18 C-53.04671875 18.29777344 -54.0934375 18.59554687 -55.171875 18.90234375 C-61.12796509 20.37578801 -67.15259577 20.96895776 -73.25 21.5625 C-73.90387695 21.62692291 -74.55775391 21.69134583 -75.23144531 21.75772095 C-98.05949252 23.93915646 -121.08801562 23.76842326 -144 24 C-144 23.01 -144 22.02 -144 21 C-144.85722656 21.02320313 -145.71445313 21.04640625 -146.59765625 21.0703125 C-152.80373869 21.16826645 -158.1571222 21.17409407 -164 19 C-164 18.34 -164 17.68 -164 17 C-160.74951545 17.30758717 -157.4997183 17.62192818 -154.25 17.9375 C-153.32960938 18.02451172 -152.40921875 18.11152344 -151.4609375 18.20117188 C-150.57148438 18.28818359 -149.68203125 18.37519531 -148.765625 18.46484375 C-147.54020996 18.58267212 -147.54020996 18.58267212 -146.29003906 18.70288086 C-144 19 -144 19 -142.14909363 19.50750732 C-139.81451154 20.04250709 -137.71862894 20.14789251 -135.32446289 20.17700195 C-134.39629257 20.18965088 -133.46812225 20.2022998 -132.51182556 20.21533203 C-131.50889969 20.22290527 -130.50597382 20.23047852 -129.47265625 20.23828125 C-127.90004784 20.25290405 -127.90004784 20.25290405 -126.29566956 20.26782227 C-103.90348108 20.43294346 -82.0189952 20.54255888 -60 16 C-59.03094727 15.80212891 -58.06189453 15.60425781 -57.06347656 15.40039062 C-50.98814305 14.12202627 -44.98850367 12.63436768 -39 11 C-38.24299805 10.79761719 -37.48599609 10.59523437 -36.70605469 10.38671875 C-27.6122525 7.93427971 -18.98431226 4.94629395 -10.3671875 1.13671875 C-6.69647773 -0.10246517 -3.84843143 -0.28311403 0 0 Z " fill="#F0A220" transform="translate(244,192)"/>
<path d="M0 0 C0.08183001 2.35488588 0.14087568 4.70686161 0.1875 7.0625 C0.23970703 9.02896484 0.23970703 9.02896484 0.29296875 11.03515625 C-0.02856772 15.38661654 -1.07912509 18.10175386 -3 22 C-3.61088611 23.31240273 -4.22155595 24.62490613 -4.83203125 25.9375 C-12.62781513 42.08521008 -12.62781513 42.08521008 -20 47 C-20.99 47 -21.98 47 -23 47 C-22.38249433 42.43462098 -21.1794179 38.4335824 -19.5625 34.125 C-16.5557032 25.84327355 -14.63077127 18.86148961 -15 10 C-19.67884053 8.16029264 -23.83509482 7.73043446 -28.8046875 7.8046875 C-29.5286673 7.8075174 -30.25264709 7.81034729 -30.99856567 7.81326294 C-33.2908849 7.82437913 -35.58280063 7.84946688 -37.875 7.875 C-39.43749432 7.8850409 -40.99999482 7.89416481 -42.5625 7.90234375 C-46.37515338 7.92429027 -50.18750848 7.95875987 -54 8 C-51.47538919 2.52092355 -47.4991328 1.1232173 -42 -1 C-29.0287811 -4.85011444 -12.38539862 -6.80767869 0 0 Z " fill="#F3A31D" transform="translate(271,175)"/>
<path d="M0 0 C3.53143959 1.37861969 7.00216156 2.87159361 10.46655273 4.41040039 C18.22510809 7.85233364 26.03138724 11.06996026 34 14 C34.6614502 14.24637207 35.32290039 14.49274414 36.00439453 14.74658203 C45.24324586 18.17584999 54.31420656 21.07968617 64 23 C64 23.33 64 23.66 64 24 C57.1781317 24.38614349 51.50422293 23.00865708 45 21 C45 21.99 45 22.98 45 24 C44.07316406 24.06058594 43.14632812 24.12117188 42.19140625 24.18359375 C40.39509766 24.30927734 40.39509766 24.30927734 38.5625 24.4375 C37.36753906 24.51871094 36.17257813 24.59992188 34.94140625 24.68359375 C32.11429756 24.67656114 32.11429756 24.67656114 31 26 C32.56020867 26.65134925 34.12328579 27.29582964 35.6875 27.9375 C36.55761719 28.29714844 37.42773438 28.65679687 38.32421875 29.02734375 C40.91851571 29.97038016 43.25352844 30.70523389 46 31 C46.66 30.34 47.32 29.68 48 29 C50.625 29.375 50.625 29.375 53 30 C53 30.66 53 31.32 53 32 C52.01 32 51.02 32 50 32 C50.85139602 34.25056591 50.85139602 34.25056591 53.43359375 35 C54.42488281 35.33 55.41617188 35.66 56.4375 36 C61.78473581 37.78473581 61.78473581 37.78473581 64 40 C66.20250992 40.46006346 66.20250992 40.46006346 68.625 40.625 C69.44226563 40.69976562 70.25953125 40.77453125 71.1015625 40.8515625 C71.72804688 40.90054688 72.35453125 40.94953125 73 41 C73 41.66 73 42.32 73 43 C80.69711755 44.14943622 88.04576807 45.14593263 95.8359375 44.9375 C99.1343326 45.03276051 101.89513081 45.9200455 105 47 C105 47.66 105 48.32 105 49 C105.76957031 48.98839844 106.53914063 48.97679687 107.33203125 48.96484375 C120.56707249 48.86086475 133.77828751 49.45828006 147 50 C141.43876358 53.43855526 134.56520621 52.34413712 128.25 52.3125 C127.54615173 52.31134186 126.84230347 52.31018372 126.11712646 52.30899048 C115.72540443 52.27500927 106.14641065 51.44681142 96 49 C93.21476018 48.48184747 90.41972856 48.02627765 87.625 47.5625 C81.51417334 46.50137658 75.43754526 45.30911485 69.375 44 C68.27406006 43.7690564 68.27406006 43.7690564 67.15087891 43.53344727 C62.49087581 42.5018721 58.3590617 40.99398622 54 39 C52.20755859 38.23623047 52.20755859 38.23623047 50.37890625 37.45703125 C33.81714076 30.34924653 16.7213001 22.91586587 3 11 C2.01 10.67 1.02 10.34 0 10 C0 6.7 0 3.4 0 0 Z " fill="#F2A31D" transform="translate(0,182)"/>
<path d="M0 0 C1.53333984 0.01353516 1.53333984 0.01353516 3.09765625 0.02734375 C5.60701522 0.0507957 8.11588336 0.08361645 10.625 0.125 C12.42582341 3.44483858 12.65775267 4.51036564 11.625 8.125 C11.625 9.28 11.625 10.435 11.625 11.625 C11.625 14.44017226 11.47034195 16.4833064 10.625 19.125 C9.965 19.125 9.305 19.125 8.625 19.125 C7.30873308 15.50526598 6.625 13.02932869 6.625 9.125 C-4.265 8.795 -15.155 8.465 -26.375 8.125 C-26.375 6.805 -26.375 5.485 -26.375 4.125 C-23.405 4.125 -20.435 4.125 -17.375 4.125 C-17.375 3.465 -17.375 2.805 -17.375 2.125 C-11.62047579 -0.36928183 -6.14438083 -0.10306703 0 0 Z " fill="#F5A219" transform="translate(251.375,172.875)"/>
<path d="M0 0 C3.31820188 0.41477523 5.84078889 1.37234442 8.75 2.9375 C12.89999987 5.09139727 17.29004219 6.74593589 22 7 C22.66 6.34 23.32 5.68 24 5 C26.625 5.375 26.625 5.375 29 6 C29 6.66 29 7.32 29 8 C28.01 8 27.02 8 26 8 C26.85139602 10.25056591 26.85139602 10.25056591 29.43359375 11 C30.42488281 11.33 31.41617188 11.66 32.4375 12 C37.78473581 13.78473581 37.78473581 13.78473581 40 16 C42.20250992 16.46006346 42.20250992 16.46006346 44.625 16.625 C45.44226563 16.69976562 46.25953125 16.77453125 47.1015625 16.8515625 C47.72804687 16.90054688 48.35453125 16.94953125 49 17 C49 17.66 49 18.32 49 19 C56.69711755 20.14943622 64.04576807 21.14593263 71.8359375 20.9375 C75.1343326 21.03276051 77.89513081 21.9200455 81 23 C81 23.66 81 24.32 81 25 C81.76957031 24.98839844 82.53914063 24.97679687 83.33203125 24.96484375 C96.56707249 24.86086475 109.77828751 25.45828006 123 26 C117.43876358 29.43855526 110.56520621 28.34413712 104.25 28.3125 C103.54615173 28.31134186 102.84230347 28.31018372 102.11712646 28.30899048 C91.72540443 28.27500927 82.14641065 27.44681142 72 25 C69.21476018 24.48184747 66.41972856 24.02627765 63.625 23.5625 C57.51417334 22.50137658 51.43754526 21.30911485 45.375 20 C44.64104004 19.8460376 43.90708008 19.6920752 43.15087891 19.53344727 C38.49066303 18.501825 34.35912739 16.99443654 30 15 C28.77085696 14.47086811 27.54034613 13.94490392 26.30859375 13.421875 C17.37647466 9.57533807 8.65009512 5.44668952 0 1 C0 0.67 0 0.34 0 0 Z " fill="#E9AB3B" transform="translate(24,206)"/>
<path d="M0 0 C0 0.66 0 1.32 0 2 C-0.63808594 2.13277344 -1.27617187 2.26554688 -1.93359375 2.40234375 C-2.75988281 2.57894531 -3.58617187 2.75554687 -4.4375 2.9375 C-5.26121094 3.11152344 -6.08492188 3.28554687 -6.93359375 3.46484375 C-8.97661204 3.80752994 -8.97661204 3.80752994 -10 5 C-36.78629286 9.89294148 -64.90044808 8.72817852 -92 9 C-92 8.01 -92 7.02 -92 6 C-92.85722656 6.02320313 -93.71445313 6.04640625 -94.59765625 6.0703125 C-100.80373869 6.16826645 -106.1571222 6.17409407 -112 4 C-112 3.34 -112 2.68 -112 2 C-108.74951545 2.30758717 -105.4997183 2.62192818 -102.25 2.9375 C-101.32960938 3.02451172 -100.40921875 3.11152344 -99.4609375 3.20117188 C-98.57148437 3.28818359 -97.68203125 3.37519531 -96.765625 3.46484375 C-95.54020996 3.58267212 -95.54020996 3.58267212 -94.29003906 3.70288086 C-92 4 -92 4 -90.14909363 4.50750732 C-87.81451154 5.04250709 -85.71862894 5.14789251 -83.32446289 5.17700195 C-82.39637817 5.18967102 -81.46829346 5.20234009 -80.51208496 5.21539307 C-79.50907349 5.22294617 -78.50606201 5.23049927 -77.47265625 5.23828125 C-76.42348022 5.24784851 -75.3743042 5.25741577 -74.29333496 5.26727295 C-70.88302671 5.29196711 -67.47288665 5.30441844 -64.0625 5.3125 C-62.91039032 5.31611542 -61.75828064 5.31973083 -60.57125854 5.32345581 C-42.35953533 5.34651164 -23.6632299 5.2663867 -5.94116211 0.43920898 C-4 0 -4 0 0 0 Z " fill="#E3AA4C" transform="translate(192,207)"/>
<path d="M0 0 C0.66 0 1.32 0 2 0 C2 2.97 2 5.94 2 9 C1.34 9 0.68 9 0 9 C0 9.66 0 10.32 0 11 C-0.56847656 11.30292969 -1.13695312 11.60585937 -1.72265625 11.91796875 C-5.52593989 13.98151997 -9.14281436 16.02774451 -12.5625 18.6875 C-15.63548895 20.97801491 -18.36651387 21.72199313 -22.0859375 22.46875 C-25.11735504 23.31012303 -27.43106588 25.23028983 -30 27 C-32.875 27.75 -32.875 27.75 -35 28 C-34.67 29.32 -34.34 30.64 -34 32 C-35.66611905 32.042721 -37.33382885 32.04063832 -39 32 C-39.33 31.67 -39.66 31.34 -40 31 C-42.02408755 31.09002398 -44.04544287 31.24641038 -46.0625 31.4375 C-47.16722656 31.53933594 -48.27195313 31.64117187 -49.41015625 31.74609375 C-50.69212891 31.87177734 -50.69212891 31.87177734 -52 32 C-49.07024985 30.04683323 -46.30369788 28.98828465 -42.99560547 27.84350586 C-34.86603316 25.02515624 -27.07195918 21.78634351 -19.375 17.9375 C-18.5713501 17.53853516 -17.7677002 17.13957031 -16.93969727 16.72851562 C-11.97798177 14.19645046 -7.38937881 11.34651826 -2.83447266 8.13891602 C-1 7 -1 7 1 7 C0.505 3.535 0.505 3.535 0 0 Z " fill="#FBF1CE" transform="translate(244,192)"/>
<path d="M0 0 C6.72368086 0.54969009 13.2177972 1.53232701 19.8125 2.9375 C27.51797424 4.53283031 35.20333499 5.91871069 43 7 C43 7.33 43 7.66 43 8 C30.79 8 18.58 8 6 8 C5.67 6.35 5.34 4.7 5 3 C3.35 2.67 1.7 2.34 0 2 C0 1.34 0 0.68 0 0 Z " fill="#FAF6E4" transform="translate(69,226)"/>
<path d="M0 0 C-2 1 -2 1 -4.93359375 0.07421875 C-9.92708712 -1.46273792 -14.88166565 -1.25334338 -20.0625 -1.1875 C-21.51366211 -1.1865332 -21.51366211 -1.1865332 -22.99414062 -1.18554688 C-27.76832771 -1.1561371 -32.30746973 -0.98915056 -37 0 C-37 0.66 -37 1.32 -37 2 C-39.97 2 -42.94 2 -46 2 C-46 3.32 -46 4.64 -46 6 C-38.41 6 -30.82 6 -23 6 C-23 6.33 -23 6.66 -23 7 C-33.33938394 7.60565429 -43.6374817 8.18615302 -54 8 C-52.15091995 3.36746433 -49.4073493 2.21013478 -45.03515625 0.171875 C-31.64117518 -4.99954626 -13.11838304 -7.2105662 0 0 Z " fill="#E0AA49" transform="translate(271,175)"/>
<path d="M0 0 C0.33 0 0.66 0 1 0 C1 6.6 1 13.2 1 20 C0.01 19.34 -0.98 18.68 -2 18 C-2 17.01 -2 16.02 -2 15 C-3.60414215 16.18523997 -3.60414215 16.18523997 -5 18 C-4.95875 18.78375 -4.9175 19.5675 -4.875 20.375 C-5 23 -5 23 -7.3125 25.625 C-8.199375 26.40875 -9.08625 27.1925 -10 28 C-12.35024514 30.18237049 -12.94722793 30.84168378 -14 34 C-16.64 34 -19.28 34 -22 34 C-22 33.34 -22 32.68 -22 32 C-20.4840625 31.319375 -20.4840625 31.319375 -18.9375 30.625 C-10.47141621 25.75058812 -6.58997942 15.62647069 -3 7 C-2.39647323 5.60388987 -1.79240929 4.20801166 -1.1875 2.8125 C-0.795625 1.884375 -0.40375 0.95625 0 0 Z " fill="#FDF0D4" transform="translate(270,190)"/>
<path d="M0 0 C-0.99 0.33 -1.98 0.66 -3 1 C-3 1.99 -3 2.98 -3 4 C-6.33303391 6.49977543 -7.73303602 7 -12 7 C-12 7.66 -12 8.32 -12 9 C-15.13498292 10.85776765 -17.37471432 11.20140476 -21 11 C-21 10.34 -21 9.68 -21 9 C-24.3 8.67 -27.6 8.34 -31 8 C-29.35 6.35 -27.7 4.7 -26 3 C-20.555 4.485 -20.555 4.485 -15 6 C-15 5.34 -15 4.68 -15 4 C-16.65 4 -18.3 4 -20 4 C-20 3.34 -20 2.68 -20 2 C-18.52093108 1.97310784 -17.04172517 1.95365379 -15.5625 1.9375 C-14.73878906 1.92589844 -13.91507813 1.91429687 -13.06640625 1.90234375 C-11 2 -11 2 -10 3 C-9.67 2.34 -9.34 1.68 -9 1 C-5.62083804 -0.73524533 -3.60583914 -1.33549598 0 0 Z " fill="#F6A215" transform="translate(233,202)"/>
<path d="M0 0 C0.66 0.33 1.32 0.66 2 1 C1.44225728 4.23490776 0.62788492 5.97855006 -2 8 C-2.99 8 -3.98 8 -5 8 C-5.33 8.99 -5.66 9.98 -6 11 C-6.33 10.34 -6.66 9.68 -7 9 C-9.97 9 -12.94 9 -16 9 C-16 9.66 -16 10.32 -16 11 C-14.35 11 -12.7 11 -11 11 C-11 11.66 -11 12.32 -11 13 C-11.66386719 12.84402344 -12.32773438 12.68804687 -13.01171875 12.52734375 C-13.89472656 12.33269531 -14.77773437 12.13804687 -15.6875 11.9375 C-16.55761719 11.74027344 -17.42773438 11.54304687 -18.32421875 11.33984375 C-22.26486499 10.83935291 -25.27243724 11.75747908 -29 13 C-31.04296875 12.87890625 -31.04296875 12.87890625 -33.1875 12.5625 C-34.445625 12.376875 -35.70375 12.19125 -37 12 C-37 11.67 -37 11.34 -37 11 C-36.030625 10.76925781 -35.06125 10.53851563 -34.0625 10.30078125 C-26.74479389 8.53097741 -19.49806353 6.62680207 -12.3125 4.375 C-11.65443359 4.16915283 -10.99636719 3.96330566 -10.31835938 3.7512207 C-7.54326234 2.86735659 -4.84717092 1.93465239 -2.16796875 0.7890625 C-1.45253906 0.52867187 -0.73710937 0.26828125 0 0 Z " fill="#F1A224" transform="translate(229,195)"/>
<path d="M0 0 C2.64 0 5.28 0 8 0 C8.10466648 8.07094823 8.03387512 15.9874678 7 24 C6.34 24 5.68 24 5 24 C5 25.65 5 27.3 5 29 C7.31 28.34 9.62 27.68 12 27 C5.75430669 37.04462016 5.75430669 37.04462016 1 40 C0.01 40 -0.98 40 -2 40 C-1.38249433 35.43462098 -0.1794179 31.4335824 1.4375 27.125 C4.4442968 18.84327355 6.36922873 11.86148961 6 3 C4.02 2.34 2.04 1.68 0 1 C0 0.67 0 0.34 0 0 Z " fill="#E2A630" transform="translate(250,182)"/>
<path d="M0 0 C4.3435377 1.69854295 8.60737634 3.5589479 12.875 5.4375 C17.90671107 7.64897982 22.94505429 9.84207931 28 12 C24.30581799 13.231394 21.7943739 12.64432764 18 12 C18 12.66 18 13.32 18 14 C16.02 13.34 14.04 12.68 12 12 C12.33 11.34 12.66 10.68 13 10 C12.34 9.67 11.68 9.34 11 9 C11 8.01 11 7.02 11 6 C9.68 6 8.36 6 7 6 C7 8.31 7 10.62 7 13 C6.401875 12.690625 5.80375 12.38125 5.1875 12.0625 C2.91043228 10.89790296 2.91043228 10.89790296 0 10 C0 6.7 0 3.4 0 0 Z " fill="#EFA628" transform="translate(0,182)"/>
<path d="M0 0 C5.875 0.875 5.875 0.875 7 2 C7.97949709 13.55806569 3.5322071 24.53735171 -1 35 C-1.33 35 -1.66 35 -2 35 C-2.17942163 31.05272412 -2.09350689 28.4019487 0 25 C-0.99 24.67 -1.98 24.34 -3 24 C-2.34 23.67 -1.68 23.34 -1 23 C0.00940379 20.98119242 0.57206674 19.2109885 1 17 C0.67 16.67 0.34 16.34 0 16 C0.28730055 13.66055264 0.61936779 11.3260857 1 9 C1.99 9 2.98 9 4 9 C4.33 6.69 4.66 4.38 5 2 C3.35 2 1.7 2 0 2 C0 1.34 0 0.68 0 0 Z " fill="#FCF8E5" transform="translate(250,183)"/>
<path d="M0 0 C0.33 0.99 0.66 1.98 1 3 C5.95 3 10.9 3 16 3 C16 4.65 16 6.3 16 8 C15.01 7.690625 14.02 7.38125 13 7.0625 C1.96016604 3.96167014 -9.7351169 4.47255822 -21 6 C-21 5.34 -21 4.68 -21 4 C-19.5459375 3.814375 -19.5459375 3.814375 -18.0625 3.625 C-16.5465625 3.315625 -16.5465625 3.315625 -15 3 C-14.67 2.34 -14.34 1.68 -14 1 C-10.83984375 0.5859375 -10.83984375 0.5859375 -6.9375 0.375 C-5.64714844 0.30023438 -4.35679687 0.22546875 -3.02734375 0.1484375 C-2.02832031 0.09945312 -1.02929688 0.05046875 0 0 Z " fill="#FBF8E2" transform="translate(255,167)"/>
<path d="M0 0 C21.53191489 2 21.53191489 2 32 4 C32 4.66 32 5.32 32 6 C26.06 6.495 26.06 6.495 20 7 C20 6.01 20 5.02 20 4 C19.14277344 4.02320313 18.28554687 4.04640625 17.40234375 4.0703125 C11.19626131 4.16826645 5.8428778 4.17409407 0 2 C0 1.34 0 0.68 0 0 Z " fill="#E6A738" transform="translate(80,209)"/>
<path d="M0 0 C1.4540625 0.0309375 1.4540625 0.0309375 2.9375 0.0625 C2.9375 0.7225 2.9375 1.3825 2.9375 2.0625 C3.9275 2.3925 4.9175 2.7225 5.9375 3.0625 C4.9475 3.5575 4.9475 3.5575 3.9375 4.0625 C6.5775 4.3925 9.2175 4.7225 11.9375 5.0625 C7.73325954 9.26674046 -0.15223886 9.86768744 -5.921875 10.25390625 C-7.96974153 10.25064532 -10.01727309 10.16649459 -12.0625 10.0625 C-12.0625 9.7325 -12.0625 9.4025 -12.0625 9.0625 C-8.7625 8.7325 -5.4625 8.4025 -2.0625 8.0625 C-1.7325 6.7425 -1.4025 5.4225 -1.0625 4.0625 C-2.41694301 2.29059091 -2.41694301 2.29059091 -4.0625 1.0625 C-3.0625 0.0625 -3.0625 0.0625 0 0 Z " fill="#ECA937" transform="translate(164.0625,221.9375)"/>
<path d="M0 0 C0.33 0 0.66 0 1 0 C1 6.6 1 13.2 1 20 C0.01 19.34 -0.98 18.68 -2 18 C-2 17.01 -2 16.02 -2 15 C-2.99 15.33 -3.98 15.66 -5 16 C-3.38235294 3.38235294 -3.38235294 3.38235294 0 0 Z " fill="#FCFBF4" transform="translate(270,190)"/>
<path d="M0 0 C2.64 0 5.28 0 8 0 C8.10466648 8.07094823 8.03387512 15.9874678 7 24 C6.34 24 5.68 24 5 24 C4.731875 24.9075 4.46375 25.815 4.1875 26.75 C3.10423706 29.71471963 2.01640543 31.6169754 0 34 C0.43646612 30.50827106 1.160391 27.38872299 2.4375 24.125 C5.21181575 16.95801763 6.3209751 10.70340229 6 3 C4.02 2.34 2.04 1.68 0 1 C0 0.67 0 0.34 0 0 Z " fill="#E8A947" transform="translate(250,182)"/>
<path d="M0 0 C5.875 0.875 5.875 0.875 7 2 C8.155 2.144375 9.31 2.28875 10.5 2.4375 C11.655 2.623125 12.81 2.80875 14 3 C14.33 3.66 14.66 4.32 15 5 C16.134375 5.28875 17.26875 5.5775 18.4375 5.875 C22 7 22 7 23.22265625 9.0703125 C23.47917969 9.70710937 23.73570313 10.34390625 24 11 C15.34444139 8.90591324 7.82772482 5.11688697 0 1 C0 0.67 0 0.34 0 0 Z " fill="#FDF1D0" transform="translate(2,182)"/>
<path d="M0 0 C-0.33 1.32 -0.66 2.64 -1 4 C-8.92 4 -16.84 4 -25 4 C-20.84624357 1.92312178 -18.5016542 1.66306808 -13.9375 1.4375 C-9.1457932 1.19112683 -4.73058681 0 0 0 Z " fill="#FDF8DC" transform="translate(168,230)"/>
<path d="M0 0 C4.12542568 0.6901558 7.8451293 1.94887848 11.75 3.4375 C13.47476562 4.08525391 13.47476562 4.08525391 15.234375 4.74609375 C18 6 18 6 19 8 C15.7 7.67 12.4 7.34 9 7 C9 7.66 9 8.32 9 9 C7.02 8.34 5.04 7.68 3 7 C3.33 6.34 3.66 5.68 4 5 C3.34 4.67 2.68 4.34 2 4 C2 3.01 2 2.02 2 1 C1.34 0.67 0.68 0.34 0 0 Z " fill="#E6A73B" transform="translate(9,187)"/>
<path d="M0 0 C2.85066875 4.27600313 2.49338248 7.98137508 2 13 C0.8125 16.4375 0.8125 16.4375 -1 20 C-1.90220942 21.97626826 -2.79767788 23.95562345 -3.6875 25.9375 C-4.45759075 27.62533901 -5.22816965 29.31295579 -6 31 C-7.07127607 28.26662287 -7.04346749 27.12673433 -6.07421875 24.30078125 C-5.38779297 22.82158203 -5.38779297 22.82158203 -4.6875 21.3125 C-1.58105236 14.22807358 0.400082 7.80159903 0 0 Z " fill="#E5A742" transform="translate(269,177)"/>
<path d="M0 0 C10.23 0.66 20.46 1.32 31 2 C31 2.33 31 2.66 31 3 C20.44 3 9.88 3 -1 3 C-0.67 2.01 -0.34 1.02 0 0 Z " fill="#FAFEE6" transform="translate(81,231)"/>
<path d="M0 0 C1.3968009 4.19040269 -0.13554325 6.12766676 -2 10 C-3 11 -3 11 -5.5625 11.0625 C-6.366875 11.041875 -7.17125 11.02125 -8 11 C-7.60348083 9.68127338 -7.18201309 8.37002899 -6.75 7.0625 C-6.51796875 6.33160156 -6.2859375 5.60070313 -6.046875 4.84765625 C-5 3 -5 3 -2.953125 2.37109375 C-2.30859375 2.24863281 -1.6640625 2.12617187 -1 2 C-0.67 1.34 -0.34 0.68 0 0 Z " fill="#161616" transform="translate(104,46)"/>
<path d="M0 0 C9.69547093 1.16992846 19.3565301 2.44779765 29 4 C29 4.33 29 4.66 29 5 C21.24506486 5.09928082 13.68931285 5.06059488 6 4 C6 3.34 6 2.68 6 2 C4.02 2 2.04 2 0 2 C0 1.34 0 0.68 0 0 Z " fill="#FBEBBA" transform="translate(80,228)"/>
<path d="M0 0 C-3.76225077 2.03712549 -7.53604956 4.05183781 -11.3125 6.0625 C-12.38435547 6.64322266 -13.45621094 7.22394531 -14.56054688 7.82226562 C-15.58857422 8.36689453 -16.61660156 8.91152344 -17.67578125 9.47265625 C-18.62364502 9.98062744 -19.57150879 10.48859863 -20.5480957 11.01196289 C-23 12 -23 12 -26 11 C-23.7448078 8.7448078 -21.9952413 8.02276532 -19 7 C-18.01 7 -17.02 7 -16 7 C-16 6.34 -16 5.68 -16 5 C-14.96875 4.566875 -13.9375 4.13375 -12.875 3.6875 C-10.40430966 2.64220793 -8.12284565 1.52768612 -5.75 0.25 C-3 -1 -3 -1 0 0 Z " fill="#D8A035" transform="translate(237,204)"/>
<path d="M0 0 C6.85921925 1.61191652 13.46207289 3.35968328 20 6 C16.49347058 7.08067609 14.69070015 6.61373484 11.21484375 5.48046875 C6.56772723 4.47236411 1.72973712 4.86020481 -3 5 C-2.505 4.54625 -2.01 4.0925 -1.5 3.625 C0.22609337 2.12364481 0.22609337 2.12364481 0 0 Z " fill="#E4A734" transform="translate(28,195)"/>
<path d="M0 0 C1 1 1 1 1.0625 4.0625 C1.041875 5.031875 1.02125 6.00125 1 7 C-0.65 7.66 -2.3 8.32 -4 9 C-4 8.01 -4 7.02 -4 6 C-2.68 6 -1.36 6 0 6 C0 5.34 0 4.68 0 4 C-3.96 3.67 -7.92 3.34 -12 3 C-8.42205665 -0.57794335 -4.82937714 -0.17886582 0 0 Z " fill="#E3A63F" transform="translate(244,192)"/>
<path d="M0 0 C4.80647882 1.57440566 9.56594529 3.25513366 14.3125 5 C15.04017578 5.26039063 15.76785156 5.52078125 16.51757812 5.7890625 C21.88497321 7.76994643 21.88497321 7.76994643 23 10 C20.69 10 18.38 10 16 10 C15.67 9.34 15.34 8.68 15 8 C11.15088872 6.18865352 7.09355887 5.12372204 3 4 C3 3.34 3 2.68 3 2 C2.01 1.67 1.02 1.34 0 1 C0 0.67 0 0.34 0 0 Z " fill="#FDF0CD" transform="translate(38,214)"/>
<path d="M0 0 C0 0.66 0 1.32 0 2 C1.32 2.33 2.64 2.66 4 3 C4 3.99 4 4.98 4 6 C2.68 6 1.36 6 0 6 C0 5.01 0 4.02 0 3 C-0.68707031 3.09539062 -1.37414062 3.19078125 -2.08203125 3.2890625 C-2.98308594 3.39992187 -3.88414062 3.51078125 -4.8125 3.625 C-5.70582031 3.74101562 -6.59914062 3.85703125 -7.51953125 3.9765625 C-10 4 -10 4 -13 2 C-4.57142857 -0.28571429 -4.57142857 -0.28571429 0 0 Z " fill="#F3A60D" transform="translate(192,210)"/>
<path d="M0 0 C1.4216868 4.26506039 -0.34613318 7.20037743 -1.9375 11.1875 C-2.22818359 11.93708984 -2.51886719 12.68667969 -2.81835938 13.45898438 C-3.53725036 15.30924477 -4.26754653 17.15506648 -5 19 C-5.33 19 -5.66 19 -6 19 C-6.17942163 15.05272412 -6.09350689 12.4019487 -4 9 C-4.99 8.67 -5.98 8.34 -7 8 C-6.34 7.67 -5.68 7.34 -5 7 C-4.67 6.34 -4.34 5.68 -4 5 C-3.01 5 -2.02 5 -1 5 C-0.67 3.35 -0.34 1.7 0 0 Z " fill="#FCF3D4" transform="translate(254,199)"/>
<path d="M0 0 C6.93 0.33 13.86 0.66 21 1 C21 1.66 21 2.32 21 3 C21.99 3.33 22.98 3.66 24 4 C18.26861756 4.15490223 13.10650794 3.65244885 7.5 2.5 C6.77296875 2.35691406 6.0459375 2.21382812 5.296875 2.06640625 C3.52990929 1.71766302 1.76474691 1.35980277 0 1 C0 0.67 0 0.34 0 0 Z " fill="#FBF2C9" transform="translate(68,206)"/>
<path d="M0 0 C-1.65 0.66 -3.3 1.32 -5 2 C-4.67 2.66 -4.34 3.32 -4 4 C-5.60875 3.938125 -5.60875 3.938125 -7.25 3.875 C-10.81976823 3.71158205 -10.81976823 3.71158205 -12.9375 5.0625 C-16.32318397 6.60144726 -19.38791545 5.60201409 -23 5 C-23 4.67 -23 4.34 -23 4 C-21.87980469 3.72285156 -20.75960937 3.44570312 -19.60546875 3.16015625 C-18.13279698 2.79433333 -16.66014158 2.42844447 -15.1875 2.0625 C-14.08051758 1.78889648 -14.08051758 1.78889648 -12.95117188 1.50976562 C-3.06390381 -0.9508667 -3.06390381 -0.9508667 0 0 Z " fill="#E6AB46" transform="translate(215,202)"/>
<path d="M0 0 C0.66 0.33 1.32 0.66 2 1 C-2.95859331 7.73454339 -2.95859331 7.73454339 -7.1875 8.8125 C-8.115625 8.874375 -9.04375 8.93625 -10 9 C-10.99 9.66 -11.98 10.32 -13 11 C-11.54983806 7.36671383 -9.77807683 5.88258423 -6.5 3.8125 C-5.7059375 3.30332031 -4.911875 2.79414062 -4.09375 2.26953125 C-2 1 -2 1 0 0 Z " fill="#E9E8E8" transform="translate(122,96)"/>
<path d="M0 0 C3.83736322 0.95934081 4.59660228 1.23609263 7 4 C6.01 4.495 6.01 4.495 5 5 C5 5.66 5 6.32 5 7 C3.625 8.625 3.625 8.625 2 10 C1.34 10 0.68 10 0 10 C0 6.7 0 3.4 0 0 Z " fill="#FAF6EA" transform="translate(0,192)"/>
<path d="M0 0 C2.25073828 0.06018017 4.50072325 0.14901206 6.75 0.25 C8.62945312 0.31960937 8.62945312 0.31960937 10.546875 0.390625 C14.40518636 1.07150347 15.60916205 1.98126522 18 5 C11.56318772 4.48914188 6.04057576 3.27057103 0 1 C0 0.67 0 0.34 0 0 Z " fill="#FAEAC0" transform="translate(42,199)"/>
<path d="M0 0 C4.44973611 0.50854127 6.62493666 2.14417717 10 5 C10.7425 5.350625 11.485 5.70125 12.25 6.0625 C14 7 14 7 15 10 C11.43574301 8.68552225 8.40275366 7.11594205 5.25 5 C4.47140625 4.484375 3.6928125 3.96875 2.890625 3.4375 C1 2 1 2 0 0 Z " fill="#E5A948" transform="translate(7,195)"/>
<path d="M0 0 C-0.33 1.32 -0.66 2.64 -1 4 C-5.62 4.33 -10.24 4.66 -15 5 C-12.62383533 2.62383533 -10.64650479 1.95931819 -7.5 0.8125 C-6.5203125 0.44769531 -5.540625 0.08289063 -4.53125 -0.29296875 C-2 -1 -2 -1 0 0 Z " fill="#E8A93C" transform="translate(231,196)"/>
<path d="M0 0 C0 0.66 0 1.32 0 2 C-3.73536869 5.27838209 -7.48086017 7.33938825 -12.5 7.3125 C-13.655 7.209375 -14.81 7.10625 -16 7 C-13.73725135 4.73725135 -11.97142905 4.07338058 -9 2.9375 C-1.37358491 0 -1.37358491 0 0 0 Z " fill="#FCEBC0" transform="translate(222,212)"/>
<path d="M0 0 C0 0.99 0 1.98 0 3 C-4.0527516 3.98248524 -7.83861737 4.08159574 -12 4 C-9.57836922 -0.84326157 -4.82936706 -0.18574489 0 0 Z " fill="#F6A411" transform="translate(210,214)"/>
<path d="M0 0 C4.9335117 2.35406142 9.51978158 4.86384711 14 8 C11.3333581 9.33332095 9.83319697 8.67102033 7 8 C7 7.01 7 6.02 7 5 C5.02 5 3.04 5 1 5 C0.67 3.35 0.34 1.7 0 0 Z " fill="#FDF2D3" transform="translate(11,199)"/>
<path d="M0 0 C0.66 0.33 1.32 0.66 2 1 C1.690625 1.556875 1.38125 2.11375 1.0625 2.6875 C-0.05761821 5.12540433 -0.56037364 7.36224186 -1 10 C-5.875 8.25 -5.875 8.25 -7 6 C-4.69 4.02 -2.38 2.04 0 0 Z " fill="#ECECEC" transform="translate(192,166)"/>
<path d="M0 0 C1.06032743 3.18098228 0.9708943 4.36533728 0.3125 7.5625 C0.16425781 8.34753906 0.01601563 9.13257813 -0.13671875 9.94140625 C-1 12 -1 12 -3.08203125 13.27734375 C-3.71496094 13.51582031 -4.34789062 13.75429687 -5 14 C-4.54857225 12.22739369 -4.08859477 10.4569632 -3.625 8.6875 C-3.36976563 7.70136719 -3.11453125 6.71523437 -2.8515625 5.69921875 C-2 3 -2 3 0 0 Z " fill="#FDF3CF" transform="translate(270,190)"/>
<path d="M0 0 C9.17286652 -0.63019694 9.17286652 -0.63019694 12.625 2 C13.07875 2.66 13.5325 3.32 14 4 C12 5 12 5 9.1796875 4.22265625 C8.08914062 3.83980469 6.99859375 3.45695313 5.875 3.0625 C4.77929688 2.68222656 3.68359375 2.30195313 2.5546875 1.91015625 C1.71164063 1.60980469 0.86859375 1.30945313 0 1 C0 0.67 0 0.34 0 0 Z " fill="#FAEED4" transform="translate(28,194)"/>
<path d="M0 0 C0.99 0.99 1.98 1.98 3 3 C2.67 3.66 2.34 4.32 2 5 C2 5.66 2 6.32 2 7 C1.01 8.485 1.01 8.485 0 10 C-0.66 10 -1.32 10 -2 10 C-2.66 8.68 -3.32 7.36 -4 6 C-3.525625 5.566875 -3.05125 5.13375 -2.5625 4.6875 C-0.76313043 2.97690387 -0.76313043 2.97690387 0 0 Z " fill="#282425" transform="translate(164,152)"/>
<path d="M0 0 C0.66 1.32 1.32 2.64 2 4 C-0.85306797 6.32472205 -3.54074837 7.7508258 -7 9 C-5.35329482 4.53037166 -4.0238267 2.68255113 0 0 Z " fill="#282425" transform="translate(207,149)"/>
<path d="M0 0 C3.78806451 0.60636284 6.82895704 1.71161456 10.25 3.4375 C11.12140625 3.86933594 11.9928125 4.30117187 12.890625 4.74609375 C15 6 15 6 16 8 C10.04675579 6.60668753 5.24258516 4.11464243 0 1 C0 0.67 0 0.34 0 0 Z " fill="#DCA84B" transform="translate(24,206)"/>
<path d="M0 0 C0 0.66 0 1.32 0 2 C-1.57914015 2.53341184 -3.16354387 3.05125763 -4.75 3.5625 C-5.63171875 3.85253906 -6.5134375 4.14257812 -7.421875 4.44140625 C-10.07834316 5.01697435 -11.47031106 4.89248371 -14 4 C-14 3.34 -14 2.68 -14 2 C-12.95199219 1.90912109 -12.95199219 1.90912109 -11.8828125 1.81640625 C-10.97273437 1.73261719 -10.06265625 1.64882812 -9.125 1.5625 C-8.22007812 1.48128906 -7.31515625 1.40007812 -6.3828125 1.31640625 C-3.9906624 0.99876009 -2.3900132 0 0 0 Z " fill="#FAFBE0" transform="translate(234,192)"/>
<path d="M0 0 C2.64 0 5.28 0 8 0 C8.05384521 2.29141286 8.09272087 4.58318188 8.125 6.875 C8.14820313 8.15117187 8.17140625 9.42734375 8.1953125 10.7421875 C8 14 8 14 6 16 C6 11.71 6 7.42 6 3 C4.02 2.34 2.04 1.68 0 1 C0 0.67 0 0.34 0 0 Z " fill="#E0AC51" transform="translate(250,182)"/>
<path d="M0 0 C1.09570312 0.00902344 2.19140625 0.01804688 3.3203125 0.02734375 C4.16335937 0.03894531 5.00640625 0.05054688 5.875 0.0625 C2.91321227 1.73360042 0.50428808 2.38932752 -2.875 2.6875 C-4.07382813 2.79964844 -4.07382813 2.79964844 -5.296875 2.9140625 C-5.90015625 2.96304687 -6.5034375 3.01203125 -7.125 3.0625 C-7.455 2.4025 -7.785 1.7425 -8.125 1.0625 C-5.36047967 -0.31976016 -3.0788637 -0.03275387 0 0 Z " fill="#F4F2F3" transform="translate(114.125,-0.0625)"/>
<path d="M0 0 C4.62 0 9.24 0 14 0 C11.57869669 2.42130331 10.19888623 2.52840504 6.875 3.125 C5.50988281 3.37636719 5.50988281 3.37636719 4.1171875 3.6328125 C3.41851562 3.75398437 2.71984375 3.87515625 2 4 C2 3.34 2 2.68 2 2 C1.34 2 0.68 2 0 2 C0 1.34 0 0.68 0 0 Z " fill="#E1A33A" transform="translate(174,224)"/>
<path d="M0 0 C2.31 0 4.62 0 7 0 C7 0.99 7 1.98 7 3 C8.98 3 10.96 3 13 3 C13 3.33 13 3.66 13 4 C11.3973218 4.10824843 9.79254252 4.18570645 8.1875 4.25 C7.29417969 4.29640625 6.40085937 4.3428125 5.48046875 4.390625 C3 4 3 4 1.17578125 1.984375 C0.78777344 1.32953125 0.39976563 0.6746875 0 0 Z " fill="#ECA835" transform="translate(73,208)"/>
<path d="M0 0 C4.455 1.98 4.455 1.98 9 4 C8.67 4.66 8.34 5.32 8 6 C5.69 5.67 3.38 5.34 1 5 C0.67 3.35 0.34 1.7 0 0 Z " fill="#272324" transform="translate(87,170)"/>
<path d="M0 0 C1.9375 0.6875 1.9375 0.6875 2.9375 2.6875 C2.6075 3.3475 2.2775 4.0075 1.9375 4.6875 C-0.125 5.3125 -0.125 5.3125 -2.0625 5.6875 C-2.7225 4.0375 -3.3825 2.3875 -4.0625 0.6875 C-2.0625 -0.3125 -2.0625 -0.3125 0 0 Z " fill="#272425" transform="translate(182.0625,16.3125)"/>
<path d="M0 0 C7.75 0.75 7.75 0.75 10 3 C6.37 3 2.74 3 -1 3 C-0.67 2.01 -0.34 1.02 0 0 Z " fill="#F3FEFB" transform="translate(81,231)"/>
<path d="M0 0 C1.98 0 3.96 0 6 0 C4.35 1.65 2.7 3.3 1 5 C-0.32 4.34 -1.64 3.68 -3 3 C-2.01 2.67 -1.02 2.34 0 2 C0 1.34 0 0.68 0 0 Z " fill="#161415" transform="translate(142,162)"/>
<path d="M0 0 C0.33 0.99 0.66 1.98 1 3 C0.67 3.66 0.34 4.32 0 5 C0.39938767 7.09821215 0.39938767 7.09821215 1 9 C0.01 9.495 0.01 9.495 -1 10 C-2.06652192 7.69631264 -3.06421005 5.35981813 -4 3 C-3 1 -3 1 0 0 Z " fill="#191718" transform="translate(108,33)"/>
<path d="M0 0 C0.66 0.33 1.32 0.66 2 1 C1.67 1.99 1.34 2.98 1 4 C3.64 4 6.28 4 9 4 C9 4.33 9 4.66 9 5 C5.04 5 1.08 5 -3 5 C-1 1 -1 1 0 0 Z " fill="#D8AA56" transform="translate(220,178)"/>
<path d="M0 0 C-4.625 4 -4.625 4 -8 4 C-8.66 5.32 -9.32 6.64 -10 8 C-9.67372714 4.98197607 -9.38918764 3.40308719 -7.25 1.1875 C-4.62847443 -0.19608294 -2.92325122 -0.24360427 0 0 Z " fill="#FDF7E0" transform="translate(224,176)"/>
<path d="M0 0 C0 0.99 0 1.98 0 3 C-0.78375 3.268125 -1.5675 3.53625 -2.375 3.8125 C-5.28114923 4.84814432 -5.28114923 4.84814432 -7 8 C-7.99 7.67 -8.98 7.34 -10 7 C-8.71372289 5.82739389 -7.42080217 4.6620717 -6.125 3.5 C-5.04605469 2.52546875 -5.04605469 2.52546875 -3.9453125 1.53125 C-2 0 -2 0 0 0 Z " fill="#E9E9E9" transform="translate(117,36)"/>
<path d="M0 0 C1.98 0 3.96 0 6 0 C6 0.66 6 1.32 6 2 C6.99 2.33 7.98 2.66 9 3 C6.69 3.33 4.38 3.66 2 4 C2 3.01 2 2.02 2 1 C1.34 0.67 0.68 0.34 0 0 Z " fill="#F3A713" transform="translate(22,195)"/>
<path d="M0 0 C2.50037734 2.17424117 3.43628586 3.73045798 4 7 C3.01 7.33 2.02 7.66 1 8 C-0.42944945 5.64561267 -1.08661261 4.51967567 -0.625 1.75 C-0.41875 1.1725 -0.2125 0.595 0 0 Z " fill="#242525" transform="translate(188,24)"/>
<path d="M0 0 C0.66 0.33 1.32 0.66 2 1 C1.34 2.32 0.68 3.64 0 5 C-2.64 5 -5.28 5 -8 5 C-8 4.34 -8 3.68 -8 3 C-6.865625 2.690625 -5.73125 2.38125 -4.5625 2.0625 C-1.21224901 1.37075469 -1.21224901 1.37075469 0 0 Z " fill="#FBF7E3" transform="translate(256,219)"/>
<path d="M0 0 C0.99 0.33 1.98 0.66 3 1 C3 1.66 3 2.32 3 3 C4.32 3.66 5.64 4.32 7 5 C6.67 5.66 6.34 6.32 6 7 C3.50638429 5.79618552 1.31856917 4.54571278 -1 3 C-0.67 2.01 -0.34 1.02 0 0 Z " fill="#272425" transform="translate(170,167)"/>
<path d="M0 0 C0.99 0.33 1.98 0.66 3 1 C1.68 2.65 0.36 4.3 -1 6 C-1.99 5.01 -2.98 4.02 -4 3 C-2.1875 1.4375 -2.1875 1.4375 0 0 Z " fill="#2B2728" transform="translate(93,8)"/>
<path d="M0 0 C1.65 0 3.3 0 5 0 C5.33 0.99 5.66 1.98 6 3 C4.02 3.66 2.04 4.32 0 5 C0 3.35 0 1.7 0 0 Z " fill="#F2A70F" transform="translate(32,199)"/>
<path d="M0 0 C0.66 0.33 1.32 0.66 2 1 C1.34 3.31 0.68 5.62 0 8 C-0.66 8 -1.32 8 -2 8 C-2.33 7.01 -2.66 6.02 -3 5 C-1.5625 2.3125 -1.5625 2.3125 0 0 Z " fill="#272324" transform="translate(82,15)"/>
<path d="M0 0 C4.95 1.98 4.95 1.98 10 4 C5.23374833 5.19156292 4.12120649 4.3415946 0 2 C0 1.34 0 0.68 0 0 Z " fill="#FDEDC4" transform="translate(28,209)"/>
<path d="M0 0 C0.33 0.66 0.66 1.32 1 2 C1.99 2.33 2.98 2.66 4 3 C4 3.66 4 4.32 4 5 C2.68 5.33 1.36 5.66 0 6 C-1.125 2.25 -1.125 2.25 0 0 Z " fill="#FAA01A" transform="translate(255,206)"/>
<path d="M0 0 C1.65 0 3.3 0 5 0 C5 0.66 5 1.32 5 2 C5.99 2.33 6.98 2.66 8 3 C5.36 3 2.72 3 0 3 C0 2.01 0 1.02 0 0 Z " fill="#FEF6DD" transform="translate(84,207)"/>
<path d="M0 0 C0.66 0.33 1.32 0.66 2 1 C1.34 2.32 0.68 3.64 0 5 C-1.32 5 -2.64 5 -4 5 C-3.6875 3.0625 -3.6875 3.0625 -3 1 C-2.01 0.67 -1.02 0.34 0 0 Z " fill="#262526" transform="translate(187,167)"/>
<path d="M0 0 C0.99 0.33 1.98 0.66 3 1 C3 1.66 3 2.32 3 3 C3.66 3.33 4.32 3.66 5 4 C4.01 4.99 3.02 5.98 2 7 C1.34 6.67 0.68 6.34 0 6 C0 4.02 0 2.04 0 0 Z " fill="#292526" transform="translate(73,161)"/>
<path d="M0 0 C1.2065625 0.0309375 1.2065625 0.0309375 2.4375 0.0625 C-0.14034846 2.71002004 -2.47898098 5.00682065 -5.5625 7.0625 C-3.33446653 0.08132845 -3.33446653 0.08132845 0 0 Z " fill="#0E0C0C" transform="translate(114.5625,97.9375)"/>
<path d="M0 0 C0 0.99 0 1.98 0 3 C-1.98 3.33 -3.96 3.66 -6 4 C-6 3.01 -6 2.02 -6 1 C-3 0 -3 0 0 0 Z " fill="#FC9E23" transform="translate(32,199)"/>
<path d="M0 0 C3.0831351 1.19899698 6.06279492 2.47700477 9 4 C5.79937313 5.60031344 3.27728194 4.03173691 0 3 C0 2.01 0 1.02 0 0 Z " fill="#E3A944" transform="translate(0,182)"/>
</svg>
